<?xml version="1.0" encoding="UTF-8" standalone="no"?><!DOCTYPE svg PUBLIC "-//W3C//DTD SVG 1.1//EN" "http://www.w3.org/Graphics/SVG/1.1/DTD/svg11.dtd"><svg width="100%" height="100%" viewBox="0 0 7000 1006" version="1.1" xmlns="http://www.w3.org/2000/svg" xmlns:xlink="http://www.w3.org/1999/xlink" xml:space="preserve" xmlns:serif="http://www.serif.com/" style="fill-rule:evenodd;clip-rule:evenodd;stroke-linejoin:round;stroke-miterlimit:2;"><rect id="Artboard2" x="-0" y="0" width="7000" height="1005.42" style="fill:none;"/><clipPath id="_clip1"><rect x="-0" y="0" width="7000" height="1005.42"/></clipPath><g clip-path="url(#_clip1)"><rect x="-164.607" y="-33.333" width="7393.77" height="3062.5" style="fill:#705757;"/><g><g opacity="0.68"><path d="M1899.37,765.146c-35.964,0 -59.969,-8.543 -72.017,-25.629c-12.047,-17.087 -9.779,-39.373 6.804,-66.86l130.426,-216.18c16.583,-27.487 41.207,-49.774 73.871,-66.86c32.664,-17.087 66.979,-25.63 102.942,-25.63c35.964,-0 59.97,8.543 72.017,25.63c12.047,17.086 9.779,39.373 -6.804,66.86l-27.564,45.687l-75.816,0l27.564,-45.687c6.723,-11.144 7.971,-20.058 3.743,-26.744c-4.229,-6.686 -12.904,-10.029 -26.025,-10.029c-13.122,-0 -25.831,3.343 -38.127,10.029c-12.296,6.686 -21.805,15.6 -28.528,26.744l-130.425,216.18c-6.723,11.143 -7.971,20.058 -3.742,26.744c4.228,6.686 12.903,10.029 26.025,10.029c13.122,-0 25.83,-3.343 38.126,-10.029c12.296,-6.686 21.805,-15.601 28.528,-26.744l33.615,-55.717l75.815,0l-33.614,55.717c-16.584,27.487 -41.207,49.773 -73.872,66.86c-32.664,17.086 -66.978,25.629 -102.942,25.629Z" style="fill:#5b3d3d;fill-rule:nonzero;"/><path d="M2267.96,759.575l41.014,-161.021l-40.095,-0l-97.146,161.021l-77.274,-0l235.303,-390.016l121.014,-0c36.935,-0 61.24,8.45 72.913,25.351c11.674,16.9 8.995,39.466 -8.037,67.695l-25.883,42.902c-10.757,17.829 -24.898,33.616 -42.424,47.359c-17.525,13.744 -37.146,24.516 -58.862,32.316l-40.334,174.393l-80.189,-0Zm34.534,-216.738l40.095,0c15.066,0 28.634,-3.157 40.706,-9.472c12.072,-6.314 21.581,-15.229 28.528,-26.744l27.228,-45.13c6.947,-11.515 8.194,-20.429 3.742,-26.744c-4.452,-6.315 -14.211,-9.472 -29.277,-9.472l-40.095,0l-70.927,117.562Z" style="fill:#5b3d3d;fill-rule:nonzero;"/><path d="M2646.87,369.559l219.428,-0l-33.615,55.716l-142.154,0l-65.549,108.648l112.994,-0l-33.614,55.716l-112.995,0l-68.91,114.219l142.154,0l-33.615,55.717l-219.427,-0l235.303,-390.016Z" style="fill:#5b3d3d;fill-rule:nonzero;"/><path d="M2907.63,673.214l-83.106,0l-68.87,86.361l-77.273,-0l319.867,-390.016l103.517,-0l-150.74,390.016l-78.731,-0l35.336,-86.361Zm24.081,-56.831l67.144,-163.249l-129.838,163.249l62.694,0Z" style="fill:#5b3d3d;fill-rule:nonzero;"/><path d="M3190.7,369.559l246.401,-0l-33.615,55.716l-84.564,0l-201.688,334.3l-77.274,-0l201.689,-334.3l-84.563,0l33.614,-55.716Z" style="fill:#5b3d3d;fill-rule:nonzero;"/><path d="M3496.88,369.559l219.428,-0l-33.615,55.716l-142.154,0l-65.549,108.648l112.994,-0l-33.615,55.716l-112.994,0l-68.91,114.219l142.154,0l-33.615,55.717l-219.427,-0l235.303,-390.016Z" style="fill:#5b3d3d;fill-rule:nonzero;"/><path d="M3896.15,673.214l-83.106,0l-68.87,86.361l-77.273,-0l319.867,-390.016l103.517,-0l-150.74,390.016l-78.731,-0l35.336,-86.361Zm24.081,-56.831l67.144,-163.249l-129.838,163.249l62.694,0Z" style="fill:#5b3d3d;fill-rule:nonzero;"/><path d="M4380.42,369.559l121.013,-0c36.936,-0 61.24,8.45 72.914,25.351c11.673,16.9 8.994,39.466 -8.038,67.695l-123.03,203.923c-17.031,28.23 -41.58,50.795 -73.646,67.696c-32.067,16.9 -66.568,25.351 -103.503,25.351l-121.014,-0l235.304,-390.016Zm-84.321,334.299c15.066,0 28.635,-3.157 40.707,-9.472c12.071,-6.314 21.581,-15.229 28.528,-26.744l124.374,-206.151c6.947,-11.515 8.195,-20.429 3.742,-26.744c-4.452,-6.315 -14.211,-9.472 -29.277,-9.472l-40.094,0l-168.074,278.583l40.094,0Z" style="fill:#5b3d3d;fill-rule:nonzero;"/><path d="M4578.43,765.146c-36.936,0 -61.614,-8.636 -74.036,-25.908c-12.421,-17.272 -10.116,-40.023 6.916,-68.253l128.408,-212.837c17.032,-28.23 42.179,-50.981 75.441,-68.253c33.262,-17.272 68.361,-25.908 105.297,-25.908c36.936,-0 61.614,8.636 74.036,25.908c12.421,17.272 10.116,40.023 -6.916,68.253l-128.408,212.837c-17.032,28.23 -42.178,50.981 -75.441,68.253c-33.262,17.272 -68.361,25.908 -105.297,25.908Zm33.615,-55.716c14.58,-0 28.017,-3.343 40.313,-10.029c12.296,-6.686 22.141,-16.158 29.537,-28.416l128.408,-212.837c7.395,-12.258 8.979,-21.729 4.751,-28.415c-4.229,-6.686 -13.633,-10.029 -28.213,-10.029c-14.579,-0 -28.017,3.343 -40.313,10.029c-12.296,6.686 -22.141,16.157 -29.536,28.415l-128.409,212.837c-7.395,12.258 -8.979,21.73 -4.75,28.416c4.228,6.686 13.632,10.029 28.212,10.029Z" style="fill:#5b3d3d;fill-rule:nonzero;"/><path d="M5109.77,491.021l19.833,-32.873c7.395,-12.258 8.978,-21.729 4.75,-28.415c-4.228,-6.686 -13.632,-10.029 -28.212,-10.029c-14.58,-0 -28.018,3.343 -40.313,10.029c-12.296,6.686 -22.141,16.157 -29.537,28.415l-128.408,212.837c-7.395,12.258 -8.979,21.73 -4.751,28.416c4.228,6.686 13.632,10.029 28.212,10.029c14.58,-0 28.018,-3.343 40.314,-10.029c12.296,-6.686 22.141,-16.158 29.536,-28.416l41.683,-69.088l-46.656,-0l33.615,-55.717l123.929,0l-75.297,124.805c-17.032,28.23 -42.179,50.981 -75.441,68.253c-33.263,17.272 -68.362,25.908 -105.297,25.908c-36.936,0 -61.615,-8.636 -74.036,-25.908c-12.421,-17.272 -10.116,-40.023 6.915,-68.253l128.409,-212.837c17.031,-28.23 42.178,-50.981 75.441,-68.253c33.262,-17.272 68.361,-25.908 105.297,-25.908c36.936,-0 61.614,8.636 74.035,25.908c12.422,17.272 10.117,40.023 -6.915,68.253l-19.833,32.873l-77.273,-0Z" style="fill:#5b3d3d;fill-rule:nonzero;"/></g><text x="1742.63px" y="757.857px" style="font-family:'Bebas-Regular', 'Bebas', sans-serif;font-size:728.995px;fill:#fff;">CRE<tspan x="2657.52px 2934.54px " y="757.857px 757.857px ">AT</tspan>E A DOG</text></g></g></svg>